<?xml version="1.0" standalone="no"?>
<!DOCTYPE svg PUBLIC "-//W3C//DTD SVG 1.1//EN" "http://www.w3.org/Graphics/SVG/1.1/DTD/svg11.dtd" >
<svg xmlns="http://www.w3.org/2000/svg">
<metadata>Generated by IcoMoon</metadata>
<defs>
<font id="icomoon" horiz-adv-x="1024">
<font-face units-per-em="1024" ascent="960" descent="-64" />
<missing-glyph horiz-adv-x="1024" />
<glyph unicode="&#x20;" horiz-adv-x="512" d="" />
<glyph unicode="&#xe900;" glyph-name="zoom" d="M735.334 252.416c-0.358 1.587-1.178 3.021-2.406 4.147-2.253 2.355-4.506 4.813-6.963 7.117-7.731 7.782-19.661 19.507-37.53 36.71l-44.646 43.213-22.579 23.808c22.067 27.597 36.25 60.211 41.267 94.618 1.126 13.824 1.126 27.699 0 41.472-3.021 24.474-11.52 48.026-24.781 69.12-13.312 21.043-31.13 39.168-52.275 53.094-21.197 13.926-45.21 23.347-70.451 27.648s-51.149 3.328-76.032-2.765c-19.456-4.864-37.939-12.851-54.63-23.654-21.35-13.619-39.526-31.437-53.35-52.224-13.517-20.531-22.374-43.571-25.907-67.635-1.382-15.002-1.382-30.054 0-45.056 4.403-31.949 17.818-62.106 38.861-87.194s48.845-44.134 80.384-55.091c30.208-9.83 62.566-12.186 94.003-6.758s60.877 18.381 85.709 37.734c1.587 0 24.934-22.323 24.934-22.323l44.493-42.701c14.336-13.619 26.624-25.242 35.482-33.434l6.451-5.888c1.741-1.843 3.686-3.533 5.786-4.966 2.304-1.229 4.966-1.69 7.578-1.229 1.843 0.205 3.584 0.973 4.864 2.253 1.331 1.28 2.15 2.918 2.406 4.71 0.051 1.792-0.154 3.533-0.666 5.274zM596.275 374.733c-17.254-16.742-38.349-29.286-61.594-36.71-16.282-5.222-33.28-7.936-50.432-8.038-17.51-0.205-34.918 2.304-51.558 7.424-23.501 7.424-44.749 20.173-62.054 37.171-17.766 16.538-31.027 36.966-38.707 59.597-11.366 31.642-11.264 66.099 0.358 97.69 11.418 32.87 34.15 60.979 64.41 79.821 30.259 18.79 66.304 27.187 102.195 23.757 11.981-1.075 23.757-3.533 35.174-7.27 23.45-7.475 44.698-20.224 62.003-37.171 16.128-17.613 29.184-37.581 38.707-59.136 11.264-31.386 11.264-65.536 0-96.922-7.578-22.784-20.787-43.469-38.502-60.211zM512-47.974c-273.92 0-495.974 222.054-495.974 495.974s222.054 495.974 495.974 495.974c273.92 0 495.974-222.054 495.974-495.974s-222.054-495.974-495.974-495.974zM512-64c282.778 0 512 229.222 512 512s-229.222 512-512 512c-282.778 0-512-229.222-512-512s229.222-512 512-512z" />
<glyph unicode="&#xe901;" glyph-name="hat" d="M1007.974 448c0 273.92-222.054 495.974-495.974 495.974s-495.974-222.054-495.974-495.974c0-273.92 222.054-495.974 495.974-495.974s495.974 222.054 495.974 495.974zM1024 448c0-282.778-229.222-512-512-512s-512 229.222-512 512c0 282.778 229.222 512 512 512s512-229.222 512-512zM784.333 526.387c4.301-1.894 8.96-4.147 10.394-8.448 2.253-7.526-6.707-13.773-14.746-16.998l-102.861-44.595c0-41.933 0-138.906-2.099-145.152-3.021-9.267-19.2-57.293-160-57.293s-161.28 49.152-163.021 54.426c-1.741 5.274-1.741 146.688-1.741 146.688s-68.506 33.126-96 45.312c-7.68 3.379-16.794 9.574-14.234 17.613 1.075 2.304 2.714 4.301 4.71 5.939 1.946 1.587 4.301 2.714 6.81 3.328l251.648 108.954c4.25 2.099 8.858 3.43 13.619 3.84 5.171-0.307 10.24-1.69 14.848-3.994l252.672-109.619zM660.634 311.040c2.765 3.994 4.25 8.755 4.147 13.619l-0.614 126.054-83.354-36.147-51.354-21.606-13.773-5.427-2.56-0.819-2.099 0.819-13.261 5.274c-6.554 3.072-14.746 6.502-24.525 10.65-7.475 3.174-15.872 6.707-25.242 10.803l-84.019 34.56v-133.939c-0.051-3.994 1.382-7.885 4.045-10.906 10.547-11.008 44.442-39.629 146.688-39.629s135.987 32.768 145.92 46.694zM514.714 401.613l257.126 111.974-254.054 112.026-260.045-112.026 256.973-111.974z" />
<glyph unicode="&#xe902;" glyph-name="code" d="M1007.974 448c0 273.92-222.054 495.974-495.974 495.974s-495.974-222.054-495.974-495.974c0-273.92 222.054-495.974 495.974-495.974s495.974 222.054 495.974 495.974zM1024 448c0-282.778-229.222-512-512-512s-512 229.222-512 512c0 282.778 229.222 512 512 512s512-229.222 512-512zM538.214 550.81c4.659 29.286 9.165 58.726 13.466 88.013 0.461 2.662 0.358 5.376-0.307 7.987-0.819 2.867-2.611 5.325-5.069 7.014-2.458 1.638-5.427 2.406-8.397 2.099-3.174-0.307-6.093-1.69-8.294-3.994s-3.533-5.325-3.686-8.499l-57.139-373.555c-0.358-1.843-0.358-3.686 0.051-5.53 0.41-1.792 1.126-3.482 2.253-5.018 1.075-1.485 2.458-2.765 4.045-3.686 1.587-0.973 3.328-1.536 5.171-1.792 1.69-0.205 3.43-0.102 5.069 0.358s3.174 1.229 4.557 2.304c1.331 1.024 2.458 2.355 3.277 3.84 0.819 1.536 1.331 3.174 1.485 4.864 4.608 28.928 9.062 57.805 13.312 86.733l30.208 198.861zM399.77 318.925c1.536 1.792 2.509 3.994 2.97 6.298 0.307 2.509 0 5.018-0.922 7.373s-2.458 4.454-4.352 6.042l-109.466 116.48 6.4 7.526 102.093 108.339c1.536 1.587 2.97 3.226 4.301 4.966 1.587 2.662 2.202 5.837 1.69 8.909-0.563 3.072-2.15 5.888-4.557 7.885-3.072 2.048-6.81 2.816-10.394 2.15-3.635-0.614-6.861-2.662-8.96-5.683l-16.026-15.974c-9.677-10.291-19.456-20.582-29.235-30.822-23.296-24.474-46.643-48.998-69.171-73.677-2.304-2.509-4.352-5.325-6.042-8.346l-2.099-3.174v-4.147l1.894-3.072c1.843-2.97 3.942-5.837 6.246-8.448 31.181-33.587 62.72-67.174 94.72-100.659l19.046-20.941 3.226-2.253c1.69-1.587 3.84-2.662 6.093-3.123 2.304-0.512 4.659-0.358 6.861 0.41 2.202 0.819 4.147 2.15 5.683 3.942zM758.579 443.29l-116.48-123.341c-1.741-2.509-4.25-4.403-7.168-5.274-2.918-0.922-5.99-0.819-8.858 0.307-2.355 0.768-4.454 2.202-5.99 4.096-1.587 1.946-2.56 4.301-2.816 6.758-0.154 2.355 0.205 4.71 1.126 6.912 0.922 2.15 2.355 4.096 4.147 5.581l103.834 109.619 2.099 2.406-3.994 5.12 4.813-4.198 3.84 4.352-109.107 116.326c-8.499 8.96-4.813 15.974-3.533 17.408 0.87 1.638 2.099 3.021 3.584 4.147s3.174 1.843 5.018 2.253c1.792 0.358 3.686 0.358 5.478-0.051s3.482-1.229 4.966-2.355c1.331-1.024 2.56-2.202 3.686-3.482l116.122-122.88c1.894-1.434 3.379-3.226 4.403-5.325s1.485-4.403 1.434-6.758c-0.102-2.304-0.717-4.608-1.894-6.605-1.126-2.048-2.765-3.738-4.71-5.018z" />
<glyph unicode="&#xe903;" glyph-name="check" d="M1007.974 448c0 273.92-222.054 495.974-495.974 495.974s-495.974-222.054-495.974-495.974c0-273.92 222.054-495.974 495.974-495.974s495.974 222.054 495.974 495.974zM1024 448c0-282.778-229.222-512-512-512s-512 229.222-512 512c0 282.778 229.222 512 512 512s512-229.222 512-512zM713.472 584.602c4.045 5.222 3.123 12.8-2.099 16.845-5.222 4.096-12.749 3.174-16.845-2.048l-229.018-293.325-121.037 120.73c-4.71 4.659-12.288 4.659-16.947-0.051-4.71-4.71-4.71-12.288 0-16.947l140.237-139.878 245.709 314.675z" />
<glyph unicode="&#xe904;" glyph-name="arrow" horiz-adv-x="2389" d="M2369.338 399.728c26.658 26.66 26.658 69.884 0 96.544l-434.449 434.446c-26.658 26.66-69.878 26.66-96.543 0-26.658-26.66-26.658-69.884 0-96.544l386.178-386.174-386.178-386.178c-26.658-26.658-26.658-69.878 0-96.543 26.665-26.658 69.885-26.658 96.543 0l434.449 434.448zM0 379.733h2321.067v136.533h-2321.067v-136.533z" />
<glyph unicode="&#xe905;" glyph-name="camera" d="M512 960c-101.264 0-200.254-30.028-284.451-86.288-84.199-56.259-149.823-136.223-188.575-229.778-38.752-93.557-48.891-196.502-29.136-295.821s68.519-190.547 140.123-262.152c71.605-71.605 162.834-120.368 262.152-140.123 99.318-19.757 202.264-9.616 295.821 29.136 93.555 38.752 173.518 104.376 229.778 188.574 56.259 84.197 86.288 183.187 86.288 284.451 0 135.79-53.942 266.021-149.962 362.039-96.018 96.019-226.248 149.961-362.038 149.961zM512-48c-98.099 0-193.995 29.090-275.563 83.59-81.566 54.502-145.14 131.966-182.681 222.598s-47.364 190.362-28.225 286.576c19.138 96.214 66.378 184.594 135.744 253.96s157.746 116.606 253.96 135.745c96.214 19.138 195.944 9.316 286.576-28.225s168.098-101.115 222.598-182.681c54.501-81.566 83.59-177.464 83.59-275.563 0-131.547-52.256-257.707-145.275-350.725s-219.178-145.275-350.725-145.275zM758.72 581.44c-3.52 0-7.52-1.44-61.44-30.88l-57.6-32v23.36c0.106 9.157-0.536 18.307-1.92 27.36-2.181 7.086-5.771 13.658-10.555 19.322s-10.664 10.302-17.285 13.638l-3.52 1.76c-8.8 3.68-19.2 3.52-151.2 3.52-107.52 0-138.72 0-142.72-1.28-9.083-2.406-17.39-7.117-24.117-13.677-6.728-6.558-11.648-14.744-14.283-23.763-2.080-4.48-2.080-16.8-2.080-119.2v-113.6l1.92-4.96c2.768-7.382 7.077-14.093 12.64-19.68 2.725-2.755 5.728-5.222 8.96-7.36 3.314-2.189 6.854-4.013 10.56-5.44l5.76-2.24h141.28c104.64 0 133.28 0 142.88 0h4c7.472 1.907 14.41 5.491 20.286 10.482 5.878 4.99 10.541 11.256 13.634 18.318 1.061 2.285 1.97 4.635 2.72 7.040-0.054 0.853-0.054 1.707 0 2.56 0.099 0.797 0.099 1.603 0 2.4 0.096 0.957 0.096 1.923 0 2.88 0 0.96 0 2.080 0 3.36 0 4 0 9.12 0 16v22.88l59.68-30.24c19.49-12.082 39.806-22.774 60.8-32 3.68 0 4.32 0 7.52 2.88l3.36 3.36v248.8l-2.56 3.040c-0.83 0.99-1.854 1.8-3.011 2.378-1.155 0.578-2.418 0.912-3.709 0.982zM581.12 317.28h-252.48c-8.89 0.080-17.522 2.995-24.64 8.32-4 4.227-7.010 9.293-8.808 14.827-1.798 5.536-2.342 11.402-1.592 17.173v188.96c0 1.6 0 3.36 0 4.96s0 3.36 0 5.12c0.251 3.867 1.003 7.686 2.24 11.36 2.402 4.808 5.912 8.974 10.24 12.16l2.4 1.76c2.88 2.080 6.72 3.040 29.28 3.36h247.84c3.57 0.24 7.15 0.24 10.72 0l4-2.24c6.493-3.573 11.614-9.2 14.56-16 1.739-7.005 2.28-14.254 1.6-21.44 0-32 0-62.56 0-93.92v-104.48c0.24-2.928 0.24-5.872 0-8.8l-2.080-4c-3.528-6.642-9.154-11.93-16-15.040l-1.92-0.8c-5.058-0.981-10.208-1.411-15.36-1.28zM746.24 350.24c0 0-24.48 13.12-53.76 29.28l-52.48 29.12v84.96l52.96 28.96 53.92 29.28c0 0 0-45.28 0-100.8s-0.32-100.8-0.64-100.8z" />
<glyph unicode="&#xe906;" glyph-name="chart" d="M1008 448c0 273.933-222.067 496-496 496s-496-222.067-496-496c0-273.933 222.067-496 496-496s496 222.067 496 496zM1024 448c0-282.77-229.23-512-512-512s-512 229.23-512 512c0 282.77 229.23 512 512 512s512-229.23 512-512zM526.387 641.598h-44.8c-26.509 0-48-21.49-48-48v-291.2c0-26.51 21.491-48 48-48h44.8c26.51 0 48 21.49 48 48v291.2c0 26.51-21.49 48-48 48zM481.587 619.198h44.8c14.139 0 25.6-11.461 25.6-25.6v-291.2c0-14.139-11.461-25.6-25.6-25.6h-44.8c-14.138 0-25.6 11.461-25.6 25.6v291.2c0 14.139 11.462 25.6 25.6 25.6zM719.997 571.197h-27.2c-26.509 0-48-21.49-48-48v-220.8c0-26.51 21.491-48 48-48h27.2c26.51 0 48 21.49 48 48v220.8c0 26.51-21.49 48-48 48zM692.797 548.797h27.2c14.139 0 25.6-11.461 25.6-25.6v-220.8c0-14.139-11.461-25.6-25.6-25.6h-27.2c-14.139 0-25.6 11.461-25.6 25.6v220.8c0 14.139 11.461 25.6 25.6 25.6zM315.2 447.998h-27.2c-26.51 0-48-21.49-48-48v-97.6c0-26.509 21.49-48 48-48h27.2c26.51 0 48 21.491 48 48v97.6c0 26.51-21.49 48-48 48zM288 425.598h27.2c14.139 0 25.6-11.461 25.6-25.6v-97.6c0-14.138-11.461-25.6-25.6-25.6h-27.2c-14.139 0-25.6 11.462-25.6 25.6v97.6c0 14.139 11.461 25.6 25.6 25.6z" />
<glyph unicode="&#xe907;" glyph-name="chevron" horiz-adv-x="597" d="M114.858-43.976c-25.824-26.239-68.083-26.653-94.321-0.829s-26.515 67.944-0.69 94.183l390.266 398.69-390.404 398.552c-25.686 26.239-25.41 68.497 0.829 94.321 26.239 25.686 68.497 25.41 94.183-0.829l481.964-492.045-481.825-492.045z" />
<glyph unicode="&#xe908;" glyph-name="discord" d="M853.315 761.777c-64.246 28.076-133.142 48.76-205.174 60.607-1.312 0.228-2.624-0.343-3.299-1.486-8.861-15.009-18.675-34.588-25.549-49.978-77.475 11.047-154.554 11.047-230.445 0-6.874 15.732-17.043 34.97-25.942 49.978-0.678 1.105-1.987 1.676-3.299 1.486-71.994-11.809-140.889-32.494-205.175-60.607-0.556-0.228-1.034-0.61-1.35-1.105-130.679-185.933-166.477-367.3-148.916-546.413 0.079-0.877 0.596-1.715 1.311-2.25 86.218-60.301 169.735-96.909 251.701-121.174 1.312-0.381 2.702 0.077 3.537 1.104 19.389 25.219 36.673 51.808 51.492 79.77 0.875 1.638 0.040 3.581-1.748 4.227-27.415 9.904-53.519 21.981-78.629 35.693-1.986 1.104-2.145 3.811-0.318 5.107 5.284 3.77 10.57 7.693 15.615 11.654 0.913 0.723 2.185 0.877 3.258 0.419 164.966-71.731 343.561-71.731 506.579 0 1.075 0.496 2.346 0.342 3.299-0.381 5.046-3.962 10.33-7.923 15.654-11.693 1.827-1.296 1.709-4.003-0.278-5.107-25.11-13.978-51.213-25.789-78.669-35.654-1.789-0.646-2.582-2.627-1.709-4.266 15.139-27.923 32.422-54.512 51.453-79.731 0.794-1.066 2.224-1.523 3.536-1.142 82.365 24.266 165.882 60.874 252.099 121.174 0.755 0.534 1.232 1.334 1.312 2.211 21.018 207.075-35.203 386.954-149.037 546.414-0.278 0.533-0.752 0.914-1.309 1.142zM336.842 323.322c-49.667 0-90.59 43.424-90.59 96.755s40.13 96.758 90.59 96.758c50.854 0 91.382-43.808 90.589-96.758 0-53.331-40.131-96.755-90.589-96.755zM671.779 323.322c-49.664 0-90.589 43.424-90.589 96.755s40.128 96.758 90.589 96.758c50.858 0 91.382-43.808 90.589-96.758 0-53.331-39.731-96.755-90.589-96.755z" />
<glyph unicode="&#xe909;" glyph-name="dollar" d="M1008 448c0 273.933-222.067 496-496 496s-496-222.067-496-496c0-273.933 222.067-496 496-496s496 222.067 496 496zM1024 448c0-282.77-229.23-512-512-512s-512 229.23-512 512c0 282.77 229.23 512 512 512s512-229.23 512-512zM410.19 525.288c-3.114 9.771-4.093 20.106-2.867 30.293 2.837 18.050 11.598 34.624 24.883 47.078s30.331 20.072 48.418 21.638c20.842 2.454 41.896 2.454 62.738 0 17.261-1.33 33.648-8.174 46.774-19.533s22.306-26.643 26.203-43.621c0.981-6.882 1.414-13.829 1.299-20.779v-8.998c0.507-2.526 1.906-4.779 3.939-6.344s4.56-2.334 7.114-2.165c1.291-0.184 2.606-0.11 3.87 0.218 1.262 0.328 2.45 0.902 3.491 1.693s1.918 1.781 2.579 2.912c0.661 1.133 1.094 2.386 1.274 3.686v16.36c-0.619 13.666-3.934 27.069-9.752 39.432-17.39 34.85-58.674 53.173-95.406 56.773h-11.376v49.083c0.131 1.48-0.067 2.971-0.581 4.363-0.515 1.394-1.331 2.653-2.39 3.688s-2.334 1.818-3.731 2.294c-1.398 0.475-2.885 0.63-4.35 0.453-1.597 0.314-3.245 0.232-4.803-0.235-1.558-0.469-2.981-1.309-4.146-2.45s-2.040-2.55-2.549-4.106c-0.507-1.555-0.634-3.211-0.368-4.826v-49.083l-20.803-2.291c-16.227-1.362-31.946-6.358-46.006-14.624-14.061-8.267-26.109-19.594-35.259-33.15-7.048-10.485-11.582-22.474-13.246-35.022s-0.413-25.315 3.656-37.294c3.338-9.962 8.28-19.304 14.629-27.651 13.261-16.28 30.934-28.33 50.872-34.685l81.266-29.123c3.032-1.104 6.083-2.173 9.133-3.243 20.011-7.013 39.989-14.014 54.093-30.626 6.821-7.634 11.931-16.653 14.989-26.448 3.056-9.795 3.986-20.136 2.726-30.325-2.722-17.794-11.325-34.144-24.421-46.406s-29.917-19.718-47.742-21.166c-20.325-1.966-40.789-1.966-61.112 0-17.008 0.779-33.342 6.915-46.699 17.542-13.355 10.627-23.059 25.208-27.741 41.686-1.622 8.352-2.384 16.85-2.275 25.36v8.998c-0.365 2.619-1.715 4.995-3.773 6.64s-4.662 2.43-7.28 2.195c-2.6 0.28-5.206-0.467-7.267-2.086-2.062-1.618-3.419-3.979-3.784-6.586-1.288-14.432 0.496-28.974 5.232-42.658 4.738-13.683 12.317-26.194 22.235-36.694 10.448-10.186 22.832-18.142 36.408-23.397 17.176-5.632 34.968-9.147 52.984-10.47v-49.085c-0.027-1.438 0.246-2.867 0.8-4.194s1.379-2.522 2.421-3.509c1.040-0.986 2.275-1.742 3.624-2.219s2.782-0.664 4.208-0.549c1.534-0.12 3.077 0.080 4.53 0.587s2.789 1.309 3.922 2.357c0.93 1.011 1.653 2.195 2.126 3.486s0.691 2.664 0.637 4.040v49.085c6.774 1.248 13.611 2.122 20.48 2.618 45.834 6.381 91.179 37.958 95.893 87.042 0.912 20.054-4.805 39.846-16.253 56.283-12.837 17.49-30.627 30.666-51.035 37.794l-82.242 29.286c-3.25 1.19-6.522 2.338-9.794 3.486-20.128 7.062-40.259 14.125-55.219 30.874-6.883 7.568-12.059 16.546-15.173 26.317z" />
<glyph unicode="&#xe90a;" glyph-name="facebook" d="M574.074 799.041c-7.216-0.719-23.818-4.456-34.067-7.619-46.63-14.232-81.853-49.453-97.155-97.037-8.227-25.733-9.094-34.646-9.818-101.638l-0.72-61.53h-112.314v-132.256h112.602v-334.96h137.142v334.96h113.325l8.371 65.123c4.621 35.651 8.374 65.408 8.23 66.128 0 0.576-29.306 1.005-65.107 1.005h-65.107l0.576 51.466c0.579 48.88 0.723 51.754 3.898 61.387 2.598 8.050 4.909 11.5 10.829 17.395 13.568 13.514 28.582 16.389 87.917 16.389h31.325v117.595l-8.227 0.863c-29.306 3.163-102.064 4.888-121.699 2.731z" />
<glyph unicode="&#xe90b;" glyph-name="figures" d="M1008 448c0 273.933-222.067 496-496 496s-496-222.067-496-496c0-273.933 222.067-496 496-496s496 222.067 496 496zM1024 448c0-282.77-229.23-512-512-512s-512 229.23-512 512c0 282.77 229.23 512 512 512s512-229.23 512-512zM747.36 507.68c-28.907 48.747-57.28 97.813-85.12 147.2l-14.56 25.12c-1.64 3.418-4.331 6.221-7.68 8h-4.64c-3.387-1.802-6.088-4.669-7.68-8.16l-16-28.32c-5.536-9.598-11.064-19.197-16.594-28.795l-0.006-0.013c-22.117-38.397-44.234-76.795-66.76-115.192-1.107-1.608-1.733-3.499-1.802-5.45-0.069-1.952 0.422-3.882 1.414-5.563s2.445-3.045 4.186-3.928c1.741-0.883 3.699-1.251 5.642-1.059h200.32c2.040-0.214 4.099 0.154 5.939 1.059s3.386 2.314 4.461 4.061c0.758 1.786 1.053 3.734 0.858 5.664-0.197 1.93-0.877 3.779-1.978 5.376zM550.72 509.76l87.040 150.56 86.88-150.56h-173.92zM491.2 322.4l-107.2 106.72c-6.56 6.4-10.72 6.4-17.28 0l-16-16-87.68-88.32c-1.987-2.15-3.806-4.451-5.44-6.88l-1.6-2.24v-3.36l0.96-1.6c0.923-1.77 2.11-3.387 3.52-4.8 30.72-31.040 61.44-61.76 92.32-92.64l15.2-14.88c0.899-1.288 2.096-2.339 3.49-3.064 1.392-0.726 2.939-1.106 4.51-1.106s3.118 0.379 4.51 1.106c1.394 0.725 2.59 1.776 3.49 3.064l107.2 107.2c6.4 6.24 6.24 10.4 0 16.8zM376.16 217.92l-96 96 96 96 96-96-96-96zM552 410.4h171.040c1.434 0.2 2.894 0.072 4.272-0.373s2.637-1.195 3.683-2.197c1.046-1 1.853-2.224 2.36-3.579 0.506-1.357 0.699-2.81 0.565-4.251v-171.84c0.194-1.461 0.043-2.947-0.44-4.339s-1.285-2.651-2.342-3.678c-1.058-1.026-2.341-1.79-3.747-2.232s-2.896-0.549-4.35-0.31h-170.72c-7.84 0-11.2 3.36-11.2 11.040v170.72c0 7.52 3.36 11.040 10.88 11.040zM560 236.32h155.2v155.36h-155.2v-155.36zM376.32 680.32c-12.488 0.47-24.939-1.64-36.576-6.2-11.635-4.56-22.205-11.47-31.050-20.299s-15.773-19.389-20.352-31.016c-4.579-11.629-6.712-24.075-6.262-36.565-0.11-11.85 2.123-23.603 6.571-34.587 4.45-10.984 11.024-20.979 19.349-29.413 17.803-18.165 42.086-28.523 67.52-28.8 12.21-0.006 24.302 2.392 35.586 7.058s21.536 11.512 30.174 20.142c8.843 8.486 15.88 18.672 20.691 29.944s7.298 23.4 7.309 35.656c0.302 12.342-1.888 24.619-6.438 36.096-4.55 11.478-11.368 21.92-20.046 30.702s-19.037 15.725-30.458 20.411c-11.422 4.688-23.672 7.024-36.018 6.87zM376 512c-10.117-0.11-20.154 1.798-29.523 5.618-9.368 3.819-17.88 9.47-25.037 16.622-10.178 10.741-16.989 24.226-19.598 38.79-2.608 14.566-0.899 29.576 4.918 43.182 5.816 13.605 15.485 25.213 27.818 33.39 12.331 8.179 26.786 12.571 41.582 12.637 9.934-0.002 19.77-1.968 28.941-5.784 9.171-3.818 17.498-9.41 24.499-16.456 6.966-6.938 12.48-15.194 16.216-24.288s5.621-18.842 5.544-28.672c0.174-9.93-1.658-19.792-5.387-28.997s-9.278-17.56-16.317-24.568c-7.037-7.008-15.416-12.522-24.637-16.211-9.221-3.691-19.091-5.482-29.019-5.264z" />
<glyph unicode="&#xe90c;" glyph-name="instagram" d="M501.76 816.887c116.032 0 131.856 0 179.325 0 42.192 0 63.29-10.548 79.11-15.823 21.098-10.548 36.922-15.823 52.742-31.645 15.824-15.823 26.371-31.645 31.645-52.742 5.277-15.822 10.55-36.919 15.824-79.112 0-47.469 0-58.019 0-179.325s0-131.856 0-179.325c0-42.192-10.547-63.29-15.824-79.11-10.547-21.098-15.821-36.922-31.645-52.742-15.821-15.824-31.645-26.371-52.742-31.645-15.821-5.277-36.918-10.55-79.11-15.824-47.469 0-58.019 0-179.325 0s-131.856 0-179.325 0c-42.192 0-63.289 10.547-79.112 15.824-21.097 10.547-36.92 15.821-52.742 31.645-15.822 15.821-26.371 31.645-31.645 52.742-5.274 15.821-10.548 36.918-15.823 79.11 0 47.469 0 58.019 0 179.325s0 131.856 0 179.325c0 42.192 10.548 63.289 15.823 79.112 10.548 21.097 15.823 36.92 31.645 52.742s31.645 26.371 52.742 31.645c15.822 5.274 36.919 10.548 79.112 15.823 47.469 0 63.293 0 179.325 0zM501.76 896c-121.306 0-131.856 0-179.325 0-47.467 0-79.112-10.548-105.483-21.097s-52.742-26.371-79.113-52.742c-26.371-26.371-36.919-47.468-52.742-79.113-10.548-26.371-15.823-58.016-21.097-105.483 0-47.469 0-63.293 0-179.325 0-121.306 0-131.856 0-179.325 0-47.466 10.548-79.11 21.097-105.482s26.371-52.742 52.742-79.114c26.371-26.371 47.468-36.922 79.113-52.742 26.371-10.55 58.016-15.824 105.483-21.098 47.469 0 63.293 0 179.325 0s131.856 0 179.325 0c47.466 0 79.11 10.547 105.482 21.098 26.371 10.547 52.742 26.371 79.114 52.742s36.922 47.466 52.742 79.114c10.55 26.371 15.824 58.016 21.098 105.482 0 47.469 0 63.293 0 179.325s0 131.856 0 179.325c0 47.467-10.547 79.112-21.098 105.483-10.547 26.371-26.371 52.742-52.742 79.113s-47.466 36.919-79.114 52.742c-26.371 10.548-58.016 15.823-105.482 21.097-47.469 0-58.019 0-179.325 0zM501.76 685.031c-126.582 0-226.791-100.209-226.791-226.791s100.209-226.79 226.791-226.79c126.582 0 226.79 100.208 226.79 226.79s-100.208 226.791-226.79 226.791zM501.76 310.563c-79.114 0-147.677 63.29-147.677 147.677 0 79.114 63.29 147.677 147.677 147.677 79.114 0 147.677-63.29 147.677-147.677 0-79.114-68.563-147.677-147.677-147.677zM733.824 637.565c29.13 0 52.742 23.612 52.742 52.741s-23.613 52.742-52.742 52.742c-29.126 0-52.739-23.613-52.739-52.742s23.613-52.741 52.739-52.741z" />
<glyph unicode="&#xe90d;" glyph-name="linkedin" d="M670.701 609.488c-54.077-7.728-92.186-29.706-115.706-66.97l-5.322-8.24v64.221h-140.768v-470.499h147.462l0.515 138.746 0.010 1.782c0.678 134.070 0.694 137.19 4.285 150.013 10.813 38.122 31.757 57.354 67.12 61.13 45.837 5.152 73.302-13.734 83.946-57.523 2.576-10.304 2.918-28.333 3.434-152.826l0.688-141.322h147.635l-0.688 160.211c-0.685 138.746-1.027 162.269-3.603 176.179-9.27 53.402-26.954 89.462-54.934 112.128-18.368 14.768-40.685 24.384-69.184 29.536-14.246 2.746-55.277 4.806-64.89 3.434zM220.084 828.765c-15.279-4.98-24.205-10.303-35.364-21.464-16.652-16.656-24.72-36.060-24.72-59.413 0-34.515 18.369-63.878 49.269-78.474 12.188-5.838 14.935-6.525 30.9-7.040 21.459-0.859 35.879 2.919 51.844 13.565 13.39 8.929 21.459 18.373 28.668 33.313 12.531 25.929 12.189 52.030-0.686 78.13-5.665 11.505-22.145 28.333-33.99 34.686-18.54 9.959-46.866 12.879-65.921 6.697zM170.312 128v470.499h147.635v-470.499h-147.635z" />
<glyph unicode="&#xe90e;" glyph-name="medium" d="M323.552 671.588c-96.461-10.774-171.887-80.807-192.622-179.159-3.907-18.624-3.907-70.646 0-89.27 17.129-81.267 72.271-144.835 146.796-168.998 24.491-8.006 38.615-10.16 66.111-10.16 28.547 0 45.226 2.618 68.515 10.621 74.374 25.395 127.712 86.653 145.293 166.998 2.704 12.314 3.155 19.549 3.155 46.176 0 26.781-0.451 33.859-3.155 46.483-15.027 68.646-56.195 123.44-115.696 154.222-16.826 8.773-40.566 16.931-58.298 20.163-13.37 2.462-48.531 4.156-60.099 2.924zM673.622 656.658c-38.765-13.237-70.019-61.567-83.99-129.906-5.712-28.013-7.363-46.326-7.363-78.957s1.651-50.947 7.363-78.96c12.771-62.029 40.566-109.126 74.074-125.597 10.816-5.232 12.17-5.539 27.194-5.539 15.027 0 16.378 0.307 27.197 5.539 39.667 19.395 70.016 80.192 79.632 159.152 1.053 8.464 1.805 28.934 1.805 45.405 0 32.63-1.654 50.944-7.363 78.957-12.771 62.029-40.566 109.28-74.074 125.443-9.917 4.925-12.922 5.695-24.941 6.003-8.266 0.308-15.779-0.308-19.533-1.539zM827.786 563.229c5.558 36.173 14.726 63.722 23.44 70.65 18.029 14.775 34.106-24.627 42.822-105.28 1.35-12.314 1.952-39.248 1.952-80.806 0-65.568-0.902-80.806-7.514-120.822-15.325-93.427-45.827-90.813-60.701 5.386-5.709 37.094-6.912 56.179-6.912 115.437s1.203 78.346 6.912 115.437z" />
<glyph unicode="&#xe90f;" glyph-name="patreon" d="M288 768h-128v-672h128v672zM608 256c141.386 0 256 114.614 256 256s-114.614 256-256 256c-141.386 0-256-114.615-256-256s114.614-256 256-256z" />
<glyph unicode="&#xe910;" glyph-name="people" d="M1008 448c0 273.933-222.067 496-496 496s-496-222.067-496-496c0-273.933 222.067-496 496-496s496 222.067 496 496zM1024 448c0-282.77-229.23-512-512-512s-512 229.23-512 512c0 282.77 229.23 512 512 512s512-229.23 512-512zM429.642 501.683c-16.366 53.306 13.496 109.795 64.186 121.162 9.034 1.933 32.307 1.365 41.021-1.136 9.67-2.728 24.654-11.139 32.731-18.299 33.155-29.325 41.126-80.586 18.702-120.709-4.888-8.638-16.47-21.709-24.123-27.165l-6.269-4.546 7.013-2.614c10.946-4.206 28.693-14.435 38.363-22.165l8.821-7.046 7.014 5.002c3.826 2.842 10.414 6.819 14.558 8.866l7.651 3.864-7.12 7.614c-12.115 13.299-18.171 28.984-18.171 47.283 0 12.958 1.486 19.891 6.482 31.144 10.096 22.618 31.882 36.939 56.216 37.053 17.429 0.114 31.456-5.797 44.102-18.64 13.814-14.094 20.298-31.485 19.341-52.171-0.744-18.413-8.926-37.166-20.51-47.395-2.55-2.16-4.675-4.32-4.675-4.774 0-0.341 2.232-1.706 5.101-2.842 35.387-15.458 61.85-55.694 63.656-96.838 0.531-11.821 0.424-12.845-1.701-15.118-2.976-3.182-9.883-3.296-12.752-0.227-2.019 2.16-2.55 4.888-3.826 19.21-1.275 13.752-7.971 31.597-16.472 43.987-5.314 7.728-18.597 20.685-25.824 25.459-25.398 16.254-56.642 18.072-83.208 4.774-5.101-2.614-10.946-6.024-12.859-7.616l-3.613-2.842 4.144-5.342c20.192-25.914 32.306-59.33 33.901-93.088 0.637-12.502 0.637-12.616-2.126-15.571-3.294-3.523-8.926-3.978-12.434-0.909-2.019 1.704-2.55 3.75-3.294 13.411-1.699 20.573-5.95 37.282-13.283 53.080-22.742 48.646-68.331 79.221-118.384 79.221-49.309 0-95.218-30.234-117.427-77.288-8.608-18.301-12.541-33.645-14.24-55.126-1.064-12.843-2.55-15.344-9.67-15.344-8.608 0-10.309 8.525-6.802 33.984 3.613 26.483 14.877 54.104 30.818 75.245 3.078 4.088 4.742 6.168 4.448 7.918-0.336 1.997-3.214 3.565-9.443 7.198-25.078 14.662-53.984 15.685-80.126 3.069-9.034-4.434-15.515-9.32-24.336-18.186-14.771-15.232-24.867-36.373-26.674-56.035-1.275-14.322-1.806-17.050-3.826-19.21-2.869-3.069-9.776-2.955-12.752 0.227-2.125 2.274-2.232 3.298-1.701 15.118 1.806 40.69 26.355 78.766 61.53 95.589 3.933 1.931 7.227 3.75 7.227 4.091 0 0.454-2.125 2.614-4.677 4.774-11.582 10.229-19.765 28.982-20.509 47.395-1.488 32.28 16.683 59.445 46.014 68.878 10.096 3.298 26.355 2.728 37.088-1.136 20.616-7.614 36.131-25.118 41.339-46.829 2.125-8.979 2.23-26.368 0.106-35.006-2.656-10.798-8.714-22.051-16.578-30.576l-7.12-7.614 7.544-3.864c4.251-2.046 10.84-6.024 14.666-8.866l7.014-5.002 8.821 7.046c9.67 7.73 27.416 17.958 38.363 22.165l7.013 2.614-6.163 4.432c-13.709 9.888-26.886 28.643-32.306 46.261zM581.075 530.893c0.106 31.939-20.403 61.378-49.947 71.606-4.675 1.592-27.205 3.069-31.349 1.933-15.197-3.978-28.056-11.707-37.939-22.96-12.752-14.435-18.277-29.779-18.277-50.238 0-11.365 0.424-14.32 2.974-22.163 6.589-20.346 19.341-35.462 37.301-44.328 9.989-4.886 17.322-6.706 28.162-6.706 14.984 0 27.736 4.546 41.019 14.662 16.154 12.389 27.949 36.826 28.056 58.194zM377.782 527.597c-6.802 6.707-12.222 9.89-21.149 12.162-7.864 1.933-11.051 2.046-18.915 0.114-27.312-6.478-42.827-36.939-32.944-64.672 6.058-17.163 21.36-29.438 38.789-31.144 17.747-1.704 36.238 9.89 44.314 27.962 2.87 6.365 3.507 9.093 3.826 17.845 0.744 16.026-3.4 26.938-13.92 37.734zM715.613 517.936c-5.739 10.571-18.598 20.005-30.288 22.392-7.544 1.477-12.114 1.363-19.128-0.683-12.965-3.75-24.229-13.638-30.181-26.597-3.187-7.046-3.4-8.069-3.4-20.458 0-12.618 0.106-13.413 3.613-20.686 9.034-19.323 29.224-30.803 47.821-27.165 32.2 6.365 48.141 43.077 31.563 73.197z" />
<glyph unicode="&#xe911;" glyph-name="reddit" d="M800.262 889.347c25.027 11.304 55.709 7.984 77.898-8.288 30.445-21.068 42.416-64.656 27.226-98.742-14.061-34.78-53.83-55.826-89.91-47.321-34.8 6.856-61.981 39.77-63.219 75.722-55.581 12.107-111.139 24.192-166.739 36.060-16.963-81.428-34.032-162.834-51.014-244.262 105.805-4.058 212.867-33.606 299.728-96.723 19.565 19.091 45.936 30.918 73.117 31.827 34.115 1.715 68.509-13.667 90.314-40.397 23.92-28.358 32.346-69.104 21.978-104.906-8.854-32.022-32.368-58.992-61.981-72.835 7.85-50.749-2.71-103.622-27.354-148.253-31.363-57.325-81.971-101.565-137.722-133.373-76.298-43.261-163.242-64.96-250.163-69.123-64.307-3.059-129.146 3.427-191.382 20.349-66.953 18.314-131.537 48.774-184.876 94.294-42.352 36.147-77.385 83.014-93.238 137.408-9.452 32.045-11.607 66.154-6.806 99.238-28.291 12.845-50.865 38.102-60.487 68.086-10.049 30.483-6.507 65.286 9.537 92.992 16.898 29.789 47.622 51.008 81.183 55.523 33.583 5.12 68.723-6.749 93.217-30.506 88.33 64.070 197.484 93.424 305.017 96.592 18.458 90.823 37.082 181.602 55.923 272.338 1.642 9.243 10.282 16.555 19.565 16.207 6.23-0.456 12.269-2.191 18.349-3.45 57.309-12.389 114.637-24.778 171.946-37.188 8.534 16.967 22.573 31.2 39.898 38.729zM327.802 423.43c-25.028-2.301-48.305-17.597-61.043-39.574-12.567-21.197-14.658-48.384-5.547-71.341 8.364-21.738 26.456-39.27 48.112-46.928 19.927-7.139 42.628-5.773 61.534 3.818 17.581 8.701 31.706 24.278 39.002 42.72 7.85 19.616 7.658 42.333-0.47 61.814-12.864 32.198-47.536 53.44-81.587 49.491zM670.966 421.978c-24.173-5.187-45.338-22.544-55.664-45.325-10.134-21.85-9.859-48.362 0.746-69.994 9.581-19.917 27.504-35.539 48.368-42.006 19.651-6.227 41.67-4.253 59.933 5.382 18.97 9.805 33.712 27.619 39.962 48.298 6.102 19.699 4.374 41.722-4.714 60.186-15.363 32.739-53.811 51.789-88.63 43.459zM327.693 161.376c-12.331-5.357-16.043-23.475-6.528-33.216 23.981-24.822 56.646-38.707 89.184-47.712 41.478-10.893 84.746-14.733 127.504-11.978 44.656 3.059 90.058 11.565 129.827 33.328 12.547 7.008 24.474 15.405 34.48 25.818 8.278 8.269 7.533 23.411-1.472 30.787-7.744 6.989-20.438 6.467-27.693-0.976-17.818-17.334-40.989-27.574-64.394-34.432-55.664-15.818-115.085-17.098-171.648-5.488-31.149 6.832-63.11 17.53-86.621 40.4-5.974 5.638-15.299 7.136-22.64 3.469z" />
<glyph unicode="&#xe912;" glyph-name="telegram" d="M63.355 450.602c247.39 104.048 412.354 172.64 494.894 205.783 235.67 94.625 284.643 111.062 316.56 111.611 7.021 0.114 22.717-1.566 32.883-9.53 8.586-6.725 10.947-15.809 12.080-22.185 1.13-6.376 2.538-20.9 1.418-32.249-12.771-129.535-68.032-443.877-96.144-588.959-11.898-61.389-35.318-81.971-57.997-83.987-49.28-4.378-86.701 31.44-134.432 61.642-74.691 47.264-116.883 76.685-189.382 122.803-83.786 53.299-29.472 82.592 18.275 130.467 12.499 12.531 229.632 203.181 233.834 220.477 0.525 2.163 1.014 10.224-3.949 14.483-4.963 4.256-12.285 2.8-17.571 1.642-7.491-1.642-126.81-77.77-357.952-228.387-33.868-22.451-64.544-33.389-92.029-32.816-30.3 0.63-88.585 16.538-131.914 30.134-53.145 16.675-95.383 25.491-91.705 53.814 1.916 14.752 22.96 29.837 63.132 45.258z" />
<glyph unicode="&#xe913;" glyph-name="tiktok" d="M670.611 864h-145.61v-588.522c0-70.122-56.003-127.722-125.696-127.722s-125.697 57.6-125.697 127.722c0 68.87 54.759 125.219 121.962 127.722v147.757c-148.097-2.502-267.571-123.965-267.571-275.478 0-152.765 121.963-275.478 272.55-275.478s272.547 123.965 272.547 275.478v301.776c54.762-40.070 121.965-63.862 192.902-65.117v147.758c-109.517 3.756-195.389 93.913-195.389 204.104z" />
<glyph unicode="&#xe914;" glyph-name="twitter" d="M345.872 64c338.032 0 522.97 283.19 522.97 528.698 0 7.962-0.173 16.099-0.525 24.061 35.978 26.302 67.024 58.882 91.683 96.207-33.507-15.071-69.082-24.913-105.507-29.191 38.355 23.243 67.075 59.756 80.832 102.771-36.083-21.619-75.542-36.868-116.691-45.096-27.722 29.78-64.378 49.499-104.298 56.106-39.923 6.607-80.883-0.264-116.554-19.552s-64.061-49.918-80.784-87.155c-16.726-37.237-20.848-79.005-11.734-118.851-73.066 3.709-144.541 22.896-209.798 56.32s-122.837 80.341-169.008 137.706c-23.467-40.902-30.647-89.303-20.083-135.367 10.564-46.061 38.081-86.33 76.958-112.618-29.186 0.938-57.733 8.88-83.283 23.178v-2.301c-0.026-42.925 14.652-84.531 41.54-117.754 26.888-33.219 64.326-56 105.95-64.47-27.036-7.478-55.412-8.57-82.932-3.184 11.746-36.915 34.598-69.203 65.368-92.355s67.923-36.016 106.271-36.794c-65.105-51.702-145.531-79.747-228.321-79.613-14.683 0.022-29.35 0.931-43.925 2.723 84.107-54.55 181.945-83.52 281.872-83.469z" />
<glyph unicode="&#xe915;" glyph-name="youtube" d="M988.416 695.086c-12.672 43.2-44.352 74.057-88.704 86.4-76.032 18.514-399.168 18.514-399.168 18.514s-316.8 0-399.168-18.514c-44.352-12.343-76.033-43.2-88.705-86.4-12.672-80.228-12.672-240.686-12.672-240.686s0-160.458 19.008-240.685c12.672-43.2 44.351-74.058 88.703-86.4 76.032-18.515 399.168-18.515 399.168-18.515s316.8 0 399.168 18.515c44.352 12.342 76.032 43.2 88.704 86.4 19.008 80.227 19.008 240.685 19.008 240.685s0 160.458-25.344 240.686zM405.504 306.285v296.23l266.112-148.115-266.112-148.115z" />
<glyph unicode="&#xe916;" glyph-name="burger" horiz-adv-x="1664" d="M64 960h1536c35.346 0 64-28.654 64-64s-28.654-64-64-64h-1536c-35.346 0-64 28.654-64 64s28.654 64 64 64zM64 512h1536c35.346 0 64-28.654 64-64s-28.654-64-64-64h-1536c-35.346 0-64 28.654-64 64s28.654 64 64 64zM64 64h1536c35.346 0 64-28.654 64-64s-28.654-64-64-64h-1536c-35.346 0-64 28.654-64 64s28.654 64 64 64z" />
<glyph unicode="&#xe917;" glyph-name="arrow-end" horiz-adv-x="822" d="M450.307-24.558c0-21.787-17.655-39.442-39.442-39.442s-39.442 17.655-39.442 39.442v636.087l-247.047-262.073c-14.775-15.777-39.693-16.528-55.47-1.628s-16.528 39.693-1.753 55.47l313.285 332.193c7.137 8.89 18.156 14.4 30.427 14.4s23.29-5.509 30.427-14.4l313.285-332.193c14.775-15.777 14.024-40.569-1.753-55.47s-40.695-14.149-55.47 1.628l-247.047 262.073v-636.087zM43.361 881.24c-21.787 0-39.442 17.655-39.442 39.317 0 21.787 17.655 39.442 39.442 39.442h735.131c21.662 0 39.317-17.655 39.317-39.442 0-21.662-17.655-39.317-39.317-39.317h-735.131z" />
</font>
</defs>
</svg>
