<svg width="54" height="58" viewBox="0 0 54 58" fill="none" xmlns="http://www.w3.org/2000/svg">
<path fill-rule="evenodd" clip-rule="evenodd" d="M27 0C18.1634 0 11 7.16344 11 16C11 17.3812 11.175 18.7215 11.5041 20H5H0V25V53V58H5H49H54V53V25V20H49H42.4959C42.825 18.7215 43 17.3812 43 16C43 7.16344 35.8366 0 27 0ZM40.2306 25C41.255 23.4971 42.0299 21.8105 42.4959 20H11.5041C11.9701 21.8105 12.745 23.4971 13.7694 25H5V53H49V25H40.2306ZM40.2306 25C37.3507 29.2255 32.4993 32 27 32C21.5007 32 16.6493 29.2255 13.7694 25H40.2306Z" fill="#202022"/>
</svg>
