<svg width="133" height="172" viewBox="0 0 133 172" fill="none" xmlns="http://www.w3.org/2000/svg">
<path d="M72.4636 79.1031C81.0526 69.7529 86.5211 64.0351 87.2008 63.7324C90.6611 62.1179 94.5849 64.5396 95.1101 68.6766C95.5117 71.7709 95.2337 72.1409 78.0248 90.8414C67.2731 102.512 61.9591 108.062 61.1867 108.432C59.6728 109.105 57.9735 109.071 56.4597 108.297C55.6564 107.894 52.2578 104.429 46.8202 98.4763C39.4979 90.4377 38.3857 89.0588 38.0767 87.7807C37.1808 84.1146 39.2817 80.4821 42.4948 80.1121C45.5844 79.7085 45.708 79.8094 52.5359 87.1752L58.7768 93.9693L72.4636 79.1031Z" fill="#FAFAFD"/>
<path fill-rule="evenodd" clip-rule="evenodd" d="M61.0933 2.95566C62.1128 1.91301 63.3795 0.83672 63.8739 0.534016C65.0788 -0.172298 67.7976 -0.172298 69.0643 0.500386C69.6205 0.80309 70.949 1.98027 72.0303 3.0902C85.5626 16.7792 101.999 23.7751 123.039 24.6832C128.909 24.9523 129.342 25.0532 130.639 26.264C131.077 26.6872 131.424 26.9978 131.701 27.362C132.807 28.8214 132.777 31.1431 132.926 45.0318C133.204 69.7527 132.74 80.8183 130.886 93.4311C126.252 124.98 112.349 147.447 88.2196 162.381C84.3577 164.735 78.6729 167.661 73.297 170.016C69.2188 171.832 68.6009 172 66.5 172C64.3682 172 63.7812 171.832 59.2395 169.847C50.7123 166.114 42.6486 161.405 36.2223 156.427C17.4377 141.898 6.16082 121.045 2.11349 93.4647C0.259755 80.8183 -0.203679 69.7864 0.0743814 45.0318C0.222729 31.1431 0.193001 28.8214 1.29943 27.362C1.57558 26.9978 1.92251 26.6872 2.36066 26.264C3.65827 25.0532 4.09081 24.9523 9.96098 24.6832C31.0627 23.7415 47.3756 16.8129 61.0933 2.95566ZM118.127 36.7914C99.4965 35.5133 82.782 28.7529 69.4969 17.1492C68.0139 15.8375 66.6236 14.7612 66.4073 14.7948C66.191 14.7948 65.1406 15.6357 64.0283 16.6447C59.6412 20.6808 51.9173 25.894 45.9235 28.8202C37.2418 33.0581 25.5633 36.0515 14.8734 36.7914L11.5985 37.0269L11.3822 50.5477C11.0114 74.3606 12.031 87.9151 15.2132 101.638C19.8167 121.583 29.6106 136.718 45.182 148.019C49.5383 151.181 59.085 156.495 63.8121 158.412L66.5 159.488L69.2188 158.412C73.2352 156.764 82.5966 151.685 86.2114 149.163C102.741 137.66 113.06 122.188 117.787 101.638C120.969 87.9151 121.989 74.3606 121.618 50.5477L121.402 37.0269L118.127 36.7914Z" fill="#FAFAFD"/>
</svg>
